<mxfile host="Electron" modified="2024-04-24T15:39:25.220Z" agent="Mozilla/5.0 (Windows NT 10.0; Win64; x64) AppleWebKit/537.36 (KHTML, like Gecko) draw.io/24.2.5 Chrome/120.0.6099.109 Electron/28.1.0 Safari/537.36" etag="VuC0AOswQVONpYzHRhhF" scale="1" border="10" version="24.2.5" type="device">
  <diagram name="Page-1" id="KG3McziWTwCD19KJNF4W">
    <mxGraphModel dx="1050" dy="631" grid="1" gridSize="10" guides="1" tooltips="1" connect="1" arrows="1" fold="1" page="1" pageScale="1" pageWidth="850" pageHeight="1100" math="0" shadow="0">
      <root>
        <mxCell id="0" />
        <mxCell id="1" parent="0" />
        <mxCell id="OpV2UFvNa62Xhtrnb1xq-9" value="" style="group" parent="1" vertex="1" connectable="0">
          <mxGeometry x="292.5" y="320" width="99" height="100" as="geometry" />
        </mxCell>
        <mxCell id="OpV2UFvNa62Xhtrnb1xq-3" value="" style="shape=image;verticalLabelPosition=bottom;labelBackgroundColor=default;verticalAlign=top;aspect=fixed;imageAspect=0;image=data:image/png,iVBORw0KGgoAAAANSUhEUgAAAGMAAABFCAYAAABezli+AAATyElEQVR4Ae1ch3tTR7bffwtb7mAgQNouycvb5GV3syQE3iNZeIGXJbsUY1uyZFNDLyYhYEwIEIot6cpdLrJlC/eCe++9yCq//c6MRpKFjIpl8Ob5+pvv6vaZ8zttzjnj32F9WzMU+N2a6cl6R7AOxhpignUw1sFYQxRYQ135N5YMO5b7A+xriMT+d2XNg8EIbrfDzpoNdjs138Tm94vnXHv/SfP671zTYLgIygGgY6vNjAXLDGYWxjE5N4jx2T6MzvRgdKYbY7O9mJjrx9T8CObMU1i0zsNmt7oBubZBWZNgENFtDgmg3xbrAiN663AZStpv4Entd7hdcQA3SvfiavFuXNLvwiX9X3Gl+HNcK/kSPxi+wn3TIeiaUlHTm4WByRbMmSecUsWly7eEkVS+TpW3xsAgznWpIovNjN7xOmjqU3GhaDuSpY04oY5EsjoMCk0slNJmKKUtUOnecjY6TtFuglwTiUS1DCc0MUjL24IM417U9KgxYx51SAoBbmV2ZzmF9P8WDK6SbLDZrFiwTKN9tBSPqo9DpYvHsSwZ5GoZVNJmpOrioZSikaKNQIo2fJkmg1IbBZUUh1QdgROHE2oZjmXLcK34E5R13MXYbDestkXY3KSQQOH94Ops0TLnVHPLARbK829cMoj7SCVRI+J0jVXhaZ0CJ3M3I1EdA4UmBkopzkl8hTYc1JYHwnXNdZ8MSikGSm0ckjTRkEuxuFH6Bco7MzA5NwC73crVIsmJQzIXFmdQ1n4Dk/ND7NzrUFdvFAwhDbQ3W6ZR0XkP3xfuhFy7ESmsRSFFK/Ob+K8CyAViJFK00VBoNyJJE4sM437GAFabxSEl3OA3DxQjNX8nescbnA5AKKXA27veGBguIGyYnOvHrzVHcDQ7DAptNFNDLq52cfqriB3INQFMqm4rEtXhOJm3jRl6JqE2G2bNo7hj3IMkaQue9/7qUGc2b/QL6bk3AoYLCDsGp5qRWbWXGWalRBIRGRJJ8AccAkWpjUYSqUOtDMWtNzFrHkNR6008qvkOZR03kd2QgLnFKactCSn1PV722sFwn8QNT7/AHeNuKKQYpGg5QVZTIrwBxL8XiWRNFJS6GDyq/g43DZ+jb6IRg9NN+OX53zE6283AIMlZze31g+GYTU/M9eCm4T0kacgrIu/If8PsjaihOKeStjLGKO/8CWRDphdG8aj6MFqGi357YJB6Iu6aXhjEg+qDSMgmd5U8pdDbhUDfyT0tGTSNiZhfnILFugiL1Yy8F+dQ0HKNCQRXr75DMcFKz2uTDKGeKEShb7sBpbQVKmnja7MPy4ND3hp5VzI8rUvAFHNlHRNCuw2Ng/n4uWo/C638tsCAHa0jxTiVvwOJ6kjINdyAvnoCt5pSEwG5Jhoq3SYUtV7EnHnSaaiJ8FabFSPT3Ug3fIzByVbntWA539dzqy4ZnJtccaAXg3qo60/ivukgzhZE4EjWBpzIDkOKhuYUq0n4pe+mGXpidhjScrejtu8ZKPQiOJ+HQcDsBs3C75m+RE2v5qXrvogb6PVVAIMpJJ5rsNtYkG/WLCKsvRid6cTobBfG53owONWE+n4JT2r+iXMFO5lbS9Ki0CwlXOhAkrF3yzUyqHRbcN+0DwOTjWwGTkB4bnw2bkdhazqe1CbCZrc4AfG8NxTHIQRDRDi5vh2b7UF9vxq5LSrmHv5g+B9cK/0CV4r/hKsln+F66R7cKt+PJ3XHUfjiPIrb0vG0/hjOF7wPuYYCgSsFRMZm72wGrwlnKjExOxypuhjcqzrIpGF+0aGWHGkqT4ISQORwvBgqw7XSD1jYXkiP572hOA4JGFysORhjM93Ib7mAi/qdUOrimWFUaGkeEYsUKRb0mx+TFxUHhTaKGVBV7nbcrtiLxzV/x8WiHYx43iWCiEwhDVJrotExNXKTIxzcH44kdRhOOFpqTjQemP6BlsECNrFz5TkEE71MTgHGxHwfzhfFY2Bide3GisAQXEJ7Ck2Xd9zFydxYHMsKY5M4JQGgJeL54nKKsG7EiawwKKRoXNLvQKouwulpKTQyZlMUGjL6MkZkIjQ1CmckqiOQmE0h8ygkqaMh18YhNWczLhe/jwfP/w+GjjvonahlNsDVZ5rAvaya3CHh99pgtS/iB8NnqO/Pcapf9/tC9TtoMERHicP6JuqZQVYQ52sotkQg+ALA23UCgDwcApNApN+RSFLLINfKcCr3bVws+hg/GvbgXuUBPKo+hKe1R6BrOgN96y2UtWeiqusBmgby0T1Wg4m5XixaZx16nudJ+Cz61SAI4gp3nMb6tEYJfes1R0jd5ZCIe0OxDxoMGhSlQBsGJFwo+hhypopIHYUiyspVzonscOZ23q74GvrWq3gxXISBqSaWWiWngHQ+5T4sLL1KxpUirpxQ1D9q4ljsfRNNqC2+F8+VtN7F/effvOT+ElCh2oICg6SBWtOgDqqc7VBqKYETmgCfUktxogim63+u+gatw8WM4JR04tLIjSqFK3jYm/eFE82d+O75bn8Ixu8ncBetc+xbpMY4oHa0DJYgNScKD0yH0TZkgMU2z+6h66HaAgKDiCE61zlWicv6Txx5h5UBIULaHNBYXNH/Ac97nmDewqOlPBvnRnQfuj5Q4giQKbnVP1nP8uWcyK7x9k00QaWLw/EsGZK0EXj4/Ai6RisdRQ9CbfkD+vK9CwAMF6dNzPXhR8MuFukkj2alkVZ6nkLZCm0cMoxfo3vc5OQ6oSaWH8LKr4hvTM0PonW4yFlVQm8WzDc604GzeW+zPlKEOVkTg+8L/gB9202mLsV9K+mN32AIqTBbZ6FpUDIPhgz1SoEgQ6/UxiAxOwJ3KvZhaLqFhSEEgXx5PCsZPD0rpIL2lV0P0DZscALAr3Oun1rox4XC/0SymuwZd6+JeZK08Xhc+x2mF0aWPBdMvwIAg3eqbcSARA3llCkR5M0j8v8cB5LnEi7p32GzcwG6CEkEM6hAnhFg9I7X455pL4vYCvvkDsbc4iiuFH2GJDUvhKC+U1NJ8TiaFYZH1d+y+QvZMXpnMJtfYHAXj9KR4/i1+igSsiKY+7pSqeADisbp3O1oHsx3U03BDSZQAgjXdXphCPdNX6OhP89ZkCAkUoBltk7jmn6PA4ylcycqmJBr41H44rqHDQmsR/6B4XARu8YqcbZgJ1TSltCoJ4nsRDTUDSmsSjAUejeQ4ROhzZY55LVcwcPqw14JKcBYsEzgqv4Lp2R4agWakJ7K24GWIT1nKlvgXpbfYJCnUdpxHQopkpXOrFQqaDAk4ifz3kPbSCnjSO7BBELO4O8VwNf1ZeF80bvoGDM4JVNIBb1d2K5p8yAuFf4XkpjN8KaKI1jR3PWSv3BX3DHfCaSHPsEQnDFvmcbD6qMs1ODJFcEdU2VgBNINfwUFFcl9fR12gsZDQBBz9U6acK7wPWTVn4TZMsvmTp7EE6CNzLTjTN7bDg/SGxgUbZYhITsMlZ0PHaEX4fJ6vtX7sd9gUMj7WslnrN4oNFLBY1jZ9YlYWJzySgjvXV7ZWSIu5S6ah3JxOv893CjbjeGZNjdbsfT9AoyesVqodNGQvyLvQhNWihqkl/0Zk/ODrDqSwPd38xuM3okanM57yxF19c4ZgUgI5ZzJCzF23mN5AprRr+ZGUickonFQiwtFHyBZE4YXQ0VOLvb2fQHG8+5nSGKh/VeXlZJ0pOZsRduIkUt7SMFwxDap00qJvIiVT/I4aNGsIKFhIJd9gXTzamxCzQr1VNP7lI0jITscpu5fmZ3g3PsyB7s/q647B3rGV4qYItWJ6miUtN9isTtydf3dfEqGeFFjfx7krKwmFOlRyrhFI0EtYxFWMpirAYZwXSmXPTk/gLyWy1BIFAGOQ17LJadxXs5WCQDnF8fxg2EXTmTzyd6rNIBKimFxNaqQpDUiqwJGQ38uC+DxhM7K1RSFFI5nh6O2T01Bh5CCwUBwZO8I5NZhPe5W7keKtImFMbQNp5csDRAM57kXYLSPGCGXIlglvK/8DNkNyrP8VP41JueGWDTB3Tvz/Ib7sU/JIOGl1jxQwLJ2oQKDZvBHssJQ3hE6m7EEBNjZjDi3+QJUOTQvIvBlkBrPMIdBqCB3Ynj+JjtGxl5qPIejzzawsM2rpIJfi0CyWoYbJXswNtvH7FTowHBUANKE72QOpUopbbpyyaC41rGsDciuC86b8iS8UDVEQKqXre/X4mrJBwwASu+mSBtR1JoOu59FBQQWqTda9fR9wQdIVlMMjeJSvsYuY+qcVlCNzfSuDhgjM224WPhHFrUMBRgULqegW3rZX9h6POG1eHKn69gVNWZcLdQQszc0k57F0FQrKnsycdt4AErdRpYllGticanoIxi7fmaVKmIS53rvy7+EejJbaXZ+GfQOvkbEFxB0nSQjHOmle9nSNxpXyCWD4lIZlQfZPMM3d/jT6XAopU1Iy92BxsEcNs8gTnTfGPcvyda5AKEBUqaRFrs09hfgSW0CLug/gUpH2cYtbHKWrJEh03gI3eNVWLQuuHlO7l/x/G13zg86RytwvvD3Dnd+aTxqORpQKiBRHYYM4wG20JOP6WVPzfOrdOyHzeAKgQaT03yK5aipAGy5zgR2nlf0ZVYewtwiLYCkuQBPnQpJYVLgUJXUYcrCjUx3or4vB09qT+BU/hYcfkqFCdFI073L1Cipv7MF76Cs/Q5sdjNTFeJ93oggztFI6T5q85YJ/GjYy1Y6sYoTn+qJM6BKimVL1tQNKiatIfemBJEaByWk5m4DLTIJhari74hixQZZdQpMLQw7waBwxcLiNON8WmRJVX85TZfxU/lXSMuJwglNFBKyac4Th1Rph0N9xuJ84YfQNqRhYKrZMZnjBBYE97YXgBMIRLzx2W5kVn7L14ywpJd/ks4ZMRrJ2jiYep6wsQQymfUpGdR50dnxuV7cKqcwcgxSpJVP/jgYJP7kFETibuU3qOtTo3mwEIbODDyrO46bhn04k/cfSJFkSNbEQq7ZDKV2IxSaOCSpN7LKkbTcbcgw/i9K239k6ypIegSHU9+X24QkcDtCEmFF+6gBd4wHkKyJY+sAqY/+Mx73pE7lbWfVKTZbiGNTYiDUYSpvNHU/Yi6pUqICtUA4xvu9PLgWjiRNOI5lhyNREw+5tBWJjPAUetiCNN12nMzZzorejmdH4mgWhRzikFFxEPoXt9A+YsCMeYS5oRwEV/EC7z9XtYL4pMepCSajPWXqytrv4lzB21BI8c4Ci8DGGMkChZmVBxypWP4NQUNfe78kg15CHaaB0nq3DOOXbDZKK0gD66wnINFQ6mLxrC4ZzQN6GDoycbnoI9CilTTdFra2j2pvj2eF45/PoqDQbcYd4z6Utt9Fz1gd08lkyIn5rTaq6zUzNSOITXvidg4Qv48DwNWR2TLPlrFVdP6CG6Wf4h/PNiCF6r6CCvmQS0sFdpGskoS+Sd8KZPMfDIcLSR/oHjPhbP7vmctH6xqCAYTPVCNwq3w3D6HbeFi7ous2VLqNjqp0Gc7kxeN2xX8jv/kaGgfyWLH0GPv3FF1sLTcVR9CaCuLsGfMYZhfGWXUH/UeEWfMEZhZGWQSVwvRDU23oGa9h76H1e79UJeD7gp2s2oOWKKxoTSEDIhyPqxNgsS0wBlg1MNylg9SVses+UnVvMfeUwAgUEPI6jmdtwJPaw8yTWrQswGazo3PUiNN57yOFrf+OwMWid5Bh/Bsyq/bjB8NuXC/9AtdLd7FwfrphF34s3407xr3IrNqHn01f4X7VfjwwHcLD59/iF9M3uGf6CreNe5FetgsXij7FmfwPodJtRzKrVKSQOFU/knfIy40CHYfwHmmdx5XiTzE0TeF4306DN4nxWzLEw+JD5OnkNKchQR3JQAkckEjI1ZG4XvpnjEx3sAFQ6KG0PR0pNFfQUEo2nE2gjmWRqiL3NQxyNcWIqOY2Askaus5rbmmNBzVK7rg3OkfPUYiCLfDXbmJpYyYFLPDJVWewIBAYlLFM0W1DXb/W6UGRfQp0CxgM+gAzh1TsvDDKluYma6hSZFPA3MVqpaRo/Gw6iMquX6BrOodTudsc0WFhX6gSJRoUDeXhCApJuBrpd9YkqvGNAUnc0kbPcc4XQT7BOCsBgL+DHIxNkEvxqOi653Aglk5cAwEkKDAYII6JGNW7kkt5tuBDJLOiZ/6vJcSAhRgvtydvijhcTlLA1lG8KnkjAFp+L74r9st9N9jz9F4ClWJrydoonCv4CFXdD5yeXKB2wh2s4MFwM+j0L4g6RsuRWfk3HM0i9REJlcQlhQbtkzBU8k/c66Y2giVWqJ9b2ncaF4950T+XuV2xB13jJufkciVAEChBg+FC1OXDU22sqesxLunfRYI6iulpJdPRm5gKSdFEQqGhxSzeGul0b+ff3DnqL1N9OrIzm1hgk2zkuYJNqOh4wEM4DqZ00SP4XyEAw2FDmMEio2VnriSt1cuqP4b0st04V/BH7nmx0AIZZpq9r/1GQKTlvIXTuR/gWunneFp3FNU9T1nWkJOcM2Lw5F/6ZEjAEB0jIHjj9UYUlqB0Z/9kE1qGClDd+xSm7ieo6n78b9Fqep/hxXAhqDJkfLaXTTIpEuEap2u8S8ka3FEIwfDWAcE5IvTN06siFrT2945+O5lMuKuhBUFQbpXBEJ+hvRiAGJD7Nc/rnve4H3t7j/s5z3vd3+3+Tc9nxLG4x/094tzq7l8jGKs7kN/C29fBWEMoroOxDsYaosAa6sq6ZKyDsYYosIa6si4Z62CsIQqsoa78C4Jau84W19zUAAAAAElFTkSuQmCC;" parent="OpV2UFvNa62Xhtrnb1xq-9" vertex="1">
          <mxGeometry x="-1" width="99" height="69" as="geometry" />
        </mxCell>
        <mxCell id="OpV2UFvNa62Xhtrnb1xq-6" value="&lt;b&gt;Spring Cloud API Gateway&lt;/b&gt;" style="text;strokeColor=none;align=center;fillColor=none;html=1;verticalAlign=middle;whiteSpace=wrap;rounded=0;" parent="OpV2UFvNa62Xhtrnb1xq-9" vertex="1">
          <mxGeometry x="9.5" y="50" width="80" height="50" as="geometry" />
        </mxCell>
        <mxCell id="OpV2UFvNa62Xhtrnb1xq-10" value="" style="group" parent="1" vertex="1" connectable="0">
          <mxGeometry x="537" y="225" width="99" height="100" as="geometry" />
        </mxCell>
        <mxCell id="OpV2UFvNa62Xhtrnb1xq-7" value="" style="shape=image;verticalLabelPosition=bottom;labelBackgroundColor=default;verticalAlign=top;aspect=fixed;imageAspect=0;image=data:image/png,iVBORw0KGgoAAAANSUhEUgAAAGMAAABFCAYAAABezli+AAATyElEQVR4Ae1ch3tTR7bffwtb7mAgQNouycvb5GV3syQE3iNZeIGXJbsUY1uyZFNDLyYhYEwIEIot6cpdLrJlC/eCe++9yCq//c6MRpKFjIpl8Ob5+pvv6vaZ8zttzjnj32F9WzMU+N2a6cl6R7AOxhpignUw1sFYQxRYQ135N5YMO5b7A+xriMT+d2XNg8EIbrfDzpoNdjs138Tm94vnXHv/SfP671zTYLgIygGgY6vNjAXLDGYWxjE5N4jx2T6MzvRgdKYbY7O9mJjrx9T8CObMU1i0zsNmt7oBubZBWZNgENFtDgmg3xbrAiN663AZStpv4Entd7hdcQA3SvfiavFuXNLvwiX9X3Gl+HNcK/kSPxi+wn3TIeiaUlHTm4WByRbMmSecUsWly7eEkVS+TpW3xsAgznWpIovNjN7xOmjqU3GhaDuSpY04oY5EsjoMCk0slNJmKKUtUOnecjY6TtFuglwTiUS1DCc0MUjL24IM417U9KgxYx51SAoBbmV2ZzmF9P8WDK6SbLDZrFiwTKN9tBSPqo9DpYvHsSwZ5GoZVNJmpOrioZSikaKNQIo2fJkmg1IbBZUUh1QdgROHE2oZjmXLcK34E5R13MXYbDestkXY3KSQQOH94Ops0TLnVHPLARbK829cMoj7SCVRI+J0jVXhaZ0CJ3M3I1EdA4UmBkopzkl8hTYc1JYHwnXNdZ8MSikGSm0ckjTRkEuxuFH6Bco7MzA5NwC73crVIsmJQzIXFmdQ1n4Dk/ND7NzrUFdvFAwhDbQ3W6ZR0XkP3xfuhFy7ESmsRSFFK/Ob+K8CyAViJFK00VBoNyJJE4sM437GAFabxSEl3OA3DxQjNX8nescbnA5AKKXA27veGBguIGyYnOvHrzVHcDQ7DAptNFNDLq52cfqriB3INQFMqm4rEtXhOJm3jRl6JqE2G2bNo7hj3IMkaQue9/7qUGc2b/QL6bk3AoYLCDsGp5qRWbWXGWalRBIRGRJJ8AccAkWpjUYSqUOtDMWtNzFrHkNR6008qvkOZR03kd2QgLnFKactCSn1PV722sFwn8QNT7/AHeNuKKQYpGg5QVZTIrwBxL8XiWRNFJS6GDyq/g43DZ+jb6IRg9NN+OX53zE6283AIMlZze31g+GYTU/M9eCm4T0kacgrIu/If8PsjaihOKeStjLGKO/8CWRDphdG8aj6MFqGi357YJB6Iu6aXhjEg+qDSMgmd5U8pdDbhUDfyT0tGTSNiZhfnILFugiL1Yy8F+dQ0HKNCQRXr75DMcFKz2uTDKGeKEShb7sBpbQVKmnja7MPy4ND3hp5VzI8rUvAFHNlHRNCuw2Ng/n4uWo/C638tsCAHa0jxTiVvwOJ6kjINdyAvnoCt5pSEwG5Jhoq3SYUtV7EnHnSaaiJ8FabFSPT3Ug3fIzByVbntWA539dzqy4ZnJtccaAXg3qo60/ivukgzhZE4EjWBpzIDkOKhuYUq0n4pe+mGXpidhjScrejtu8ZKPQiOJ+HQcDsBs3C75m+RE2v5qXrvogb6PVVAIMpJJ5rsNtYkG/WLCKsvRid6cTobBfG53owONWE+n4JT2r+iXMFO5lbS9Ki0CwlXOhAkrF3yzUyqHRbcN+0DwOTjWwGTkB4bnw2bkdhazqe1CbCZrc4AfG8NxTHIQRDRDi5vh2b7UF9vxq5LSrmHv5g+B9cK/0CV4r/hKsln+F66R7cKt+PJ3XHUfjiPIrb0vG0/hjOF7wPuYYCgSsFRMZm72wGrwlnKjExOxypuhjcqzrIpGF+0aGWHGkqT4ISQORwvBgqw7XSD1jYXkiP572hOA4JGFysORhjM93Ib7mAi/qdUOrimWFUaGkeEYsUKRb0mx+TFxUHhTaKGVBV7nbcrtiLxzV/x8WiHYx43iWCiEwhDVJrotExNXKTIxzcH44kdRhOOFpqTjQemP6BlsECNrFz5TkEE71MTgHGxHwfzhfFY2Bide3GisAQXEJ7Ck2Xd9zFydxYHMsKY5M4JQGgJeL54nKKsG7EiawwKKRoXNLvQKouwulpKTQyZlMUGjL6MkZkIjQ1CmckqiOQmE0h8ygkqaMh18YhNWczLhe/jwfP/w+GjjvonahlNsDVZ5rAvaya3CHh99pgtS/iB8NnqO/Pcapf9/tC9TtoMERHicP6JuqZQVYQ52sotkQg+ALA23UCgDwcApNApN+RSFLLINfKcCr3bVws+hg/GvbgXuUBPKo+hKe1R6BrOgN96y2UtWeiqusBmgby0T1Wg4m5XixaZx16nudJ+Cz61SAI4gp3nMb6tEYJfes1R0jd5ZCIe0OxDxoMGhSlQBsGJFwo+hhypopIHYUiyspVzonscOZ23q74GvrWq3gxXISBqSaWWiWngHQ+5T4sLL1KxpUirpxQ1D9q4ljsfRNNqC2+F8+VtN7F/effvOT+ElCh2oICg6SBWtOgDqqc7VBqKYETmgCfUktxogim63+u+gatw8WM4JR04tLIjSqFK3jYm/eFE82d+O75bn8Ixu8ncBetc+xbpMY4oHa0DJYgNScKD0yH0TZkgMU2z+6h66HaAgKDiCE61zlWicv6Txx5h5UBIULaHNBYXNH/Ac97nmDewqOlPBvnRnQfuj5Q4giQKbnVP1nP8uWcyK7x9k00QaWLw/EsGZK0EXj4/Ai6RisdRQ9CbfkD+vK9CwAMF6dNzPXhR8MuFukkj2alkVZ6nkLZCm0cMoxfo3vc5OQ6oSaWH8LKr4hvTM0PonW4yFlVQm8WzDc604GzeW+zPlKEOVkTg+8L/gB9202mLsV9K+mN32AIqTBbZ6FpUDIPhgz1SoEgQ6/UxiAxOwJ3KvZhaLqFhSEEgXx5PCsZPD0rpIL2lV0P0DZscALAr3Oun1rox4XC/0SymuwZd6+JeZK08Xhc+x2mF0aWPBdMvwIAg3eqbcSARA3llCkR5M0j8v8cB5LnEi7p32GzcwG6CEkEM6hAnhFg9I7X455pL4vYCvvkDsbc4iiuFH2GJDUvhKC+U1NJ8TiaFYZH1d+y+QvZMXpnMJtfYHAXj9KR4/i1+igSsiKY+7pSqeADisbp3O1oHsx3U03BDSZQAgjXdXphCPdNX6OhP89ZkCAkUoBltk7jmn6PA4ylcycqmJBr41H44rqHDQmsR/6B4XARu8YqcbZgJ1TSltCoJ4nsRDTUDSmsSjAUejeQ4ROhzZY55LVcwcPqw14JKcBYsEzgqv4Lp2R4agWakJ7K24GWIT1nKlvgXpbfYJCnUdpxHQopkpXOrFQqaDAk4ifz3kPbSCnjSO7BBELO4O8VwNf1ZeF80bvoGDM4JVNIBb1d2K5p8yAuFf4XkpjN8KaKI1jR3PWSv3BX3DHfCaSHPsEQnDFvmcbD6qMs1ODJFcEdU2VgBNINfwUFFcl9fR12gsZDQBBz9U6acK7wPWTVn4TZMsvmTp7EE6CNzLTjTN7bDg/SGxgUbZYhITsMlZ0PHaEX4fJ6vtX7sd9gUMj7WslnrN4oNFLBY1jZ9YlYWJzySgjvXV7ZWSIu5S6ah3JxOv893CjbjeGZNjdbsfT9AoyesVqodNGQvyLvQhNWihqkl/0Zk/ODrDqSwPd38xuM3okanM57yxF19c4ZgUgI5ZzJCzF23mN5AprRr+ZGUickonFQiwtFHyBZE4YXQ0VOLvb2fQHG8+5nSGKh/VeXlZJ0pOZsRduIkUt7SMFwxDap00qJvIiVT/I4aNGsIKFhIJd9gXTzamxCzQr1VNP7lI0jITscpu5fmZ3g3PsyB7s/q647B3rGV4qYItWJ6miUtN9isTtydf3dfEqGeFFjfx7krKwmFOlRyrhFI0EtYxFWMpirAYZwXSmXPTk/gLyWy1BIFAGOQ17LJadxXs5WCQDnF8fxg2EXTmTzyd6rNIBKimFxNaqQpDUiqwJGQ38uC+DxhM7K1RSFFI5nh6O2T01Bh5CCwUBwZO8I5NZhPe5W7keKtImFMbQNp5csDRAM57kXYLSPGCGXIlglvK/8DNkNyrP8VP41JueGWDTB3Tvz/Ib7sU/JIOGl1jxQwLJ2oQKDZvBHssJQ3hE6m7EEBNjZjDi3+QJUOTQvIvBlkBrPMIdBqCB3Ynj+JjtGxl5qPIejzzawsM2rpIJfi0CyWoYbJXswNtvH7FTowHBUANKE72QOpUopbbpyyaC41rGsDciuC86b8iS8UDVEQKqXre/X4mrJBwwASu+mSBtR1JoOu59FBQQWqTda9fR9wQdIVlMMjeJSvsYuY+qcVlCNzfSuDhgjM224WPhHFrUMBRgULqegW3rZX9h6POG1eHKn69gVNWZcLdQQszc0k57F0FQrKnsycdt4AErdRpYllGticanoIxi7fmaVKmIS53rvy7+EejJbaXZ+GfQOvkbEFxB0nSQjHOmle9nSNxpXyCWD4lIZlQfZPMM3d/jT6XAopU1Iy92BxsEcNs8gTnTfGPcvyda5AKEBUqaRFrs09hfgSW0CLug/gUpH2cYtbHKWrJEh03gI3eNVWLQuuHlO7l/x/G13zg86RytwvvD3Dnd+aTxqORpQKiBRHYYM4wG20JOP6WVPzfOrdOyHzeAKgQaT03yK5aipAGy5zgR2nlf0ZVYewtwiLYCkuQBPnQpJYVLgUJXUYcrCjUx3or4vB09qT+BU/hYcfkqFCdFI073L1Cipv7MF76Cs/Q5sdjNTFeJ93oggztFI6T5q85YJ/GjYy1Y6sYoTn+qJM6BKimVL1tQNKiatIfemBJEaByWk5m4DLTIJhari74hixQZZdQpMLQw7waBwxcLiNON8WmRJVX85TZfxU/lXSMuJwglNFBKyac4Th1Rph0N9xuJ84YfQNqRhYKrZMZnjBBYE97YXgBMIRLzx2W5kVn7L14ywpJd/ks4ZMRrJ2jiYep6wsQQymfUpGdR50dnxuV7cKqcwcgxSpJVP/jgYJP7kFETibuU3qOtTo3mwEIbODDyrO46bhn04k/cfSJFkSNbEQq7ZDKV2IxSaOCSpN7LKkbTcbcgw/i9K239k6ypIegSHU9+X24QkcDtCEmFF+6gBd4wHkKyJY+sAqY/+Mx73pE7lbWfVKTZbiGNTYiDUYSpvNHU/Yi6pUqICtUA4xvu9PLgWjiRNOI5lhyNREw+5tBWJjPAUetiCNN12nMzZzorejmdH4mgWhRzikFFxEPoXt9A+YsCMeYS5oRwEV/EC7z9XtYL4pMepCSajPWXqytrv4lzB21BI8c4Ci8DGGMkChZmVBxypWP4NQUNfe78kg15CHaaB0nq3DOOXbDZKK0gD66wnINFQ6mLxrC4ZzQN6GDoycbnoI9CilTTdFra2j2pvj2eF45/PoqDQbcYd4z6Utt9Fz1gd08lkyIn5rTaq6zUzNSOITXvidg4Qv48DwNWR2TLPlrFVdP6CG6Wf4h/PNiCF6r6CCvmQS0sFdpGskoS+Sd8KZPMfDIcLSR/oHjPhbP7vmctH6xqCAYTPVCNwq3w3D6HbeFi7ous2VLqNjqp0Gc7kxeN2xX8jv/kaGgfyWLH0GPv3FF1sLTcVR9CaCuLsGfMYZhfGWXUH/UeEWfMEZhZGWQSVwvRDU23oGa9h76H1e79UJeD7gp2s2oOWKKxoTSEDIhyPqxNgsS0wBlg1MNylg9SVses+UnVvMfeUwAgUEPI6jmdtwJPaw8yTWrQswGazo3PUiNN57yOFrf+OwMWid5Bh/Bsyq/bjB8NuXC/9AtdLd7FwfrphF34s3407xr3IrNqHn01f4X7VfjwwHcLD59/iF9M3uGf6CreNe5FetgsXij7FmfwPodJtRzKrVKSQOFU/knfIy40CHYfwHmmdx5XiTzE0TeF4306DN4nxWzLEw+JD5OnkNKchQR3JQAkckEjI1ZG4XvpnjEx3sAFQ6KG0PR0pNFfQUEo2nE2gjmWRqiL3NQxyNcWIqOY2Askaus5rbmmNBzVK7rg3OkfPUYiCLfDXbmJpYyYFLPDJVWewIBAYlLFM0W1DXb/W6UGRfQp0CxgM+gAzh1TsvDDKluYma6hSZFPA3MVqpaRo/Gw6iMquX6BrOodTudsc0WFhX6gSJRoUDeXhCApJuBrpd9YkqvGNAUnc0kbPcc4XQT7BOCsBgL+DHIxNkEvxqOi653Aglk5cAwEkKDAYII6JGNW7kkt5tuBDJLOiZ/6vJcSAhRgvtydvijhcTlLA1lG8KnkjAFp+L74r9st9N9jz9F4ClWJrydoonCv4CFXdD5yeXKB2wh2s4MFwM+j0L4g6RsuRWfk3HM0i9REJlcQlhQbtkzBU8k/c66Y2giVWqJ9b2ncaF4950T+XuV2xB13jJufkciVAEChBg+FC1OXDU22sqesxLunfRYI6iulpJdPRm5gKSdFEQqGhxSzeGul0b+ff3DnqL1N9OrIzm1hgk2zkuYJNqOh4wEM4DqZ00SP4XyEAw2FDmMEio2VnriSt1cuqP4b0st04V/BH7nmx0AIZZpq9r/1GQKTlvIXTuR/gWunneFp3FNU9T1nWkJOcM2Lw5F/6ZEjAEB0jIHjj9UYUlqB0Z/9kE1qGClDd+xSm7ieo6n78b9Fqep/hxXAhqDJkfLaXTTIpEuEap2u8S8ka3FEIwfDWAcE5IvTN06siFrT2945+O5lMuKuhBUFQbpXBEJ+hvRiAGJD7Nc/rnve4H3t7j/s5z3vd3+3+Tc9nxLG4x/094tzq7l8jGKs7kN/C29fBWEMoroOxDsYaosAa6sq6ZKyDsYYosIa6si4Z62CsIQqsoa78C4Jau84W19zUAAAAAElFTkSuQmCC;" parent="OpV2UFvNa62Xhtrnb1xq-10" vertex="1">
          <mxGeometry width="99" height="69" as="geometry" />
        </mxCell>
        <mxCell id="OpV2UFvNa62Xhtrnb1xq-8" value="&lt;b&gt;Spring Cloud Config Service&lt;/b&gt;" style="text;strokeColor=none;align=center;fillColor=none;html=1;verticalAlign=middle;whiteSpace=wrap;rounded=0;" parent="OpV2UFvNa62Xhtrnb1xq-10" vertex="1">
          <mxGeometry x="3.5" y="50" width="90.5" height="50" as="geometry" />
        </mxCell>
        <mxCell id="OpV2UFvNa62Xhtrnb1xq-22" value="&lt;b&gt;&lt;font color=&quot;#ffffff&quot;&gt;Stock Data Service&lt;/font&gt;&lt;/b&gt;" style="rounded=1;whiteSpace=wrap;html=1;labelBackgroundColor=none;fillColor=#FF9933;strokeWidth=1.5;perimeterSpacing=0;" parent="1" vertex="1">
          <mxGeometry x="286.29" y="239" width="110" height="56" as="geometry" />
        </mxCell>
        <mxCell id="tSHxOHQZL74azQnE-G1b-1" value="&lt;b&gt;&lt;font color=&quot;#ffffff&quot;&gt;Stock Data Producer&lt;/font&gt;&lt;/b&gt;" style="rounded=1;whiteSpace=wrap;html=1;labelBackgroundColor=none;fillColor=#6666FF;strokeWidth=1.5;perimeterSpacing=0;" parent="1" vertex="1">
          <mxGeometry x="287" y="64" width="110" height="56" as="geometry" />
        </mxCell>
        <mxCell id="tSHxOHQZL74azQnE-G1b-2" value="&lt;b&gt;&lt;font color=&quot;#ffffff&quot;&gt;Stock Data Consumer&lt;/font&gt;&lt;/b&gt;" style="rounded=1;whiteSpace=wrap;html=1;labelBackgroundColor=none;fillColor=#6666FF;strokeWidth=1.5;perimeterSpacing=0;" parent="1" vertex="1">
          <mxGeometry x="286.29" y="150" width="110" height="56" as="geometry" />
        </mxCell>
        <mxCell id="um_Ki8IDZ3RUpcfRVOOU-1" value="" style="group" parent="1" vertex="1" connectable="0">
          <mxGeometry x="292.50000000000006" y="430" width="100.40656565656559" height="100" as="geometry" />
        </mxCell>
        <mxCell id="OpV2UFvNa62Xhtrnb1xq-17" value="" style="shape=image;verticalLabelPosition=bottom;labelBackgroundColor=default;verticalAlign=top;aspect=fixed;imageAspect=0;image=data:image/png,iVBORw0KGgoAAAANSUhEUgAAAGMAAABFCAYAAABezli+AAATyElEQVR4Ae1ch3tTR7bffwtb7mAgQNouycvb5GV3syQE3iNZeIGXJbsUY1uyZFNDLyYhYEwIEIot6cpdLrJlC/eCe++9yCq//c6MRpKFjIpl8Ob5+pvv6vaZ8zttzjnj32F9WzMU+N2a6cl6R7AOxhpignUw1sFYQxRYQ135N5YMO5b7A+xriMT+d2XNg8EIbrfDzpoNdjs138Tm94vnXHv/SfP671zTYLgIygGgY6vNjAXLDGYWxjE5N4jx2T6MzvRgdKYbY7O9mJjrx9T8CObMU1i0zsNmt7oBubZBWZNgENFtDgmg3xbrAiN663AZStpv4Entd7hdcQA3SvfiavFuXNLvwiX9X3Gl+HNcK/kSPxi+wn3TIeiaUlHTm4WByRbMmSecUsWly7eEkVS+TpW3xsAgznWpIovNjN7xOmjqU3GhaDuSpY04oY5EsjoMCk0slNJmKKUtUOnecjY6TtFuglwTiUS1DCc0MUjL24IM417U9KgxYx51SAoBbmV2ZzmF9P8WDK6SbLDZrFiwTKN9tBSPqo9DpYvHsSwZ5GoZVNJmpOrioZSikaKNQIo2fJkmg1IbBZUUh1QdgROHE2oZjmXLcK34E5R13MXYbDestkXY3KSQQOH94Ops0TLnVHPLARbK829cMoj7SCVRI+J0jVXhaZ0CJ3M3I1EdA4UmBkopzkl8hTYc1JYHwnXNdZ8MSikGSm0ckjTRkEuxuFH6Bco7MzA5NwC73crVIsmJQzIXFmdQ1n4Dk/ND7NzrUFdvFAwhDbQ3W6ZR0XkP3xfuhFy7ESmsRSFFK/Ob+K8CyAViJFK00VBoNyJJE4sM437GAFabxSEl3OA3DxQjNX8nescbnA5AKKXA27veGBguIGyYnOvHrzVHcDQ7DAptNFNDLq52cfqriB3INQFMqm4rEtXhOJm3jRl6JqE2G2bNo7hj3IMkaQue9/7qUGc2b/QL6bk3AoYLCDsGp5qRWbWXGWalRBIRGRJJ8AccAkWpjUYSqUOtDMWtNzFrHkNR6008qvkOZR03kd2QgLnFKactCSn1PV722sFwn8QNT7/AHeNuKKQYpGg5QVZTIrwBxL8XiWRNFJS6GDyq/g43DZ+jb6IRg9NN+OX53zE6283AIMlZze31g+GYTU/M9eCm4T0kacgrIu/If8PsjaihOKeStjLGKO/8CWRDphdG8aj6MFqGi357YJB6Iu6aXhjEg+qDSMgmd5U8pdDbhUDfyT0tGTSNiZhfnILFugiL1Yy8F+dQ0HKNCQRXr75DMcFKz2uTDKGeKEShb7sBpbQVKmnja7MPy4ND3hp5VzI8rUvAFHNlHRNCuw2Ng/n4uWo/C638tsCAHa0jxTiVvwOJ6kjINdyAvnoCt5pSEwG5Jhoq3SYUtV7EnHnSaaiJ8FabFSPT3Ug3fIzByVbntWA539dzqy4ZnJtccaAXg3qo60/ivukgzhZE4EjWBpzIDkOKhuYUq0n4pe+mGXpidhjScrejtu8ZKPQiOJ+HQcDsBs3C75m+RE2v5qXrvogb6PVVAIMpJJ5rsNtYkG/WLCKsvRid6cTobBfG53owONWE+n4JT2r+iXMFO5lbS9Ki0CwlXOhAkrF3yzUyqHRbcN+0DwOTjWwGTkB4bnw2bkdhazqe1CbCZrc4AfG8NxTHIQRDRDi5vh2b7UF9vxq5LSrmHv5g+B9cK/0CV4r/hKsln+F66R7cKt+PJ3XHUfjiPIrb0vG0/hjOF7wPuYYCgSsFRMZm72wGrwlnKjExOxypuhjcqzrIpGF+0aGWHGkqT4ISQORwvBgqw7XSD1jYXkiP572hOA4JGFysORhjM93Ib7mAi/qdUOrimWFUaGkeEYsUKRb0mx+TFxUHhTaKGVBV7nbcrtiLxzV/x8WiHYx43iWCiEwhDVJrotExNXKTIxzcH44kdRhOOFpqTjQemP6BlsECNrFz5TkEE71MTgHGxHwfzhfFY2Bide3GisAQXEJ7Ck2Xd9zFydxYHMsKY5M4JQGgJeL54nKKsG7EiawwKKRoXNLvQKouwulpKTQyZlMUGjL6MkZkIjQ1CmckqiOQmE0h8ygkqaMh18YhNWczLhe/jwfP/w+GjjvonahlNsDVZ5rAvaya3CHh99pgtS/iB8NnqO/Pcapf9/tC9TtoMERHicP6JuqZQVYQ52sotkQg+ALA23UCgDwcApNApN+RSFLLINfKcCr3bVws+hg/GvbgXuUBPKo+hKe1R6BrOgN96y2UtWeiqusBmgby0T1Wg4m5XixaZx16nudJ+Cz61SAI4gp3nMb6tEYJfes1R0jd5ZCIe0OxDxoMGhSlQBsGJFwo+hhypopIHYUiyspVzonscOZ23q74GvrWq3gxXISBqSaWWiWngHQ+5T4sLL1KxpUirpxQ1D9q4ljsfRNNqC2+F8+VtN7F/effvOT+ElCh2oICg6SBWtOgDqqc7VBqKYETmgCfUktxogim63+u+gatw8WM4JR04tLIjSqFK3jYm/eFE82d+O75bn8Ixu8ncBetc+xbpMY4oHa0DJYgNScKD0yH0TZkgMU2z+6h66HaAgKDiCE61zlWicv6Txx5h5UBIULaHNBYXNH/Ac97nmDewqOlPBvnRnQfuj5Q4giQKbnVP1nP8uWcyK7x9k00QaWLw/EsGZK0EXj4/Ai6RisdRQ9CbfkD+vK9CwAMF6dNzPXhR8MuFukkj2alkVZ6nkLZCm0cMoxfo3vc5OQ6oSaWH8LKr4hvTM0PonW4yFlVQm8WzDc604GzeW+zPlKEOVkTg+8L/gB9202mLsV9K+mN32AIqTBbZ6FpUDIPhgz1SoEgQ6/UxiAxOwJ3KvZhaLqFhSEEgXx5PCsZPD0rpIL2lV0P0DZscALAr3Oun1rox4XC/0SymuwZd6+JeZK08Xhc+x2mF0aWPBdMvwIAg3eqbcSARA3llCkR5M0j8v8cB5LnEi7p32GzcwG6CEkEM6hAnhFg9I7X455pL4vYCvvkDsbc4iiuFH2GJDUvhKC+U1NJ8TiaFYZH1d+y+QvZMXpnMJtfYHAXj9KR4/i1+igSsiKY+7pSqeADisbp3O1oHsx3U03BDSZQAgjXdXphCPdNX6OhP89ZkCAkUoBltk7jmn6PA4ylcycqmJBr41H44rqHDQmsR/6B4XARu8YqcbZgJ1TSltCoJ4nsRDTUDSmsSjAUejeQ4ROhzZY55LVcwcPqw14JKcBYsEzgqv4Lp2R4agWakJ7K24GWIT1nKlvgXpbfYJCnUdpxHQopkpXOrFQqaDAk4ifz3kPbSCnjSO7BBELO4O8VwNf1ZeF80bvoGDM4JVNIBb1d2K5p8yAuFf4XkpjN8KaKI1jR3PWSv3BX3DHfCaSHPsEQnDFvmcbD6qMs1ODJFcEdU2VgBNINfwUFFcl9fR12gsZDQBBz9U6acK7wPWTVn4TZMsvmTp7EE6CNzLTjTN7bDg/SGxgUbZYhITsMlZ0PHaEX4fJ6vtX7sd9gUMj7WslnrN4oNFLBY1jZ9YlYWJzySgjvXV7ZWSIu5S6ah3JxOv893CjbjeGZNjdbsfT9AoyesVqodNGQvyLvQhNWihqkl/0Zk/ODrDqSwPd38xuM3okanM57yxF19c4ZgUgI5ZzJCzF23mN5AprRr+ZGUickonFQiwtFHyBZE4YXQ0VOLvb2fQHG8+5nSGKh/VeXlZJ0pOZsRduIkUt7SMFwxDap00qJvIiVT/I4aNGsIKFhIJd9gXTzamxCzQr1VNP7lI0jITscpu5fmZ3g3PsyB7s/q647B3rGV4qYItWJ6miUtN9isTtydf3dfEqGeFFjfx7krKwmFOlRyrhFI0EtYxFWMpirAYZwXSmXPTk/gLyWy1BIFAGOQ17LJadxXs5WCQDnF8fxg2EXTmTzyd6rNIBKimFxNaqQpDUiqwJGQ38uC+DxhM7K1RSFFI5nh6O2T01Bh5CCwUBwZO8I5NZhPe5W7keKtImFMbQNp5csDRAM57kXYLSPGCGXIlglvK/8DNkNyrP8VP41JueGWDTB3Tvz/Ib7sU/JIOGl1jxQwLJ2oQKDZvBHssJQ3hE6m7EEBNjZjDi3+QJUOTQvIvBlkBrPMIdBqCB3Ynj+JjtGxl5qPIejzzawsM2rpIJfi0CyWoYbJXswNtvH7FTowHBUANKE72QOpUopbbpyyaC41rGsDciuC86b8iS8UDVEQKqXre/X4mrJBwwASu+mSBtR1JoOu59FBQQWqTda9fR9wQdIVlMMjeJSvsYuY+qcVlCNzfSuDhgjM224WPhHFrUMBRgULqegW3rZX9h6POG1eHKn69gVNWZcLdQQszc0k57F0FQrKnsycdt4AErdRpYllGticanoIxi7fmaVKmIS53rvy7+EejJbaXZ+GfQOvkbEFxB0nSQjHOmle9nSNxpXyCWD4lIZlQfZPMM3d/jT6XAopU1Iy92BxsEcNs8gTnTfGPcvyda5AKEBUqaRFrs09hfgSW0CLug/gUpH2cYtbHKWrJEh03gI3eNVWLQuuHlO7l/x/G13zg86RytwvvD3Dnd+aTxqORpQKiBRHYYM4wG20JOP6WVPzfOrdOyHzeAKgQaT03yK5aipAGy5zgR2nlf0ZVYewtwiLYCkuQBPnQpJYVLgUJXUYcrCjUx3or4vB09qT+BU/hYcfkqFCdFI073L1Cipv7MF76Cs/Q5sdjNTFeJ93oggztFI6T5q85YJ/GjYy1Y6sYoTn+qJM6BKimVL1tQNKiatIfemBJEaByWk5m4DLTIJhari74hixQZZdQpMLQw7waBwxcLiNON8WmRJVX85TZfxU/lXSMuJwglNFBKyac4Th1Rph0N9xuJ84YfQNqRhYKrZMZnjBBYE97YXgBMIRLzx2W5kVn7L14ywpJd/ks4ZMRrJ2jiYep6wsQQymfUpGdR50dnxuV7cKqcwcgxSpJVP/jgYJP7kFETibuU3qOtTo3mwEIbODDyrO46bhn04k/cfSJFkSNbEQq7ZDKV2IxSaOCSpN7LKkbTcbcgw/i9K239k6ypIegSHU9+X24QkcDtCEmFF+6gBd4wHkKyJY+sAqY/+Mx73pE7lbWfVKTZbiGNTYiDUYSpvNHU/Yi6pUqICtUA4xvu9PLgWjiRNOI5lhyNREw+5tBWJjPAUetiCNN12nMzZzorejmdH4mgWhRzikFFxEPoXt9A+YsCMeYS5oRwEV/EC7z9XtYL4pMepCSajPWXqytrv4lzB21BI8c4Ci8DGGMkChZmVBxypWP4NQUNfe78kg15CHaaB0nq3DOOXbDZKK0gD66wnINFQ6mLxrC4ZzQN6GDoycbnoI9CilTTdFra2j2pvj2eF45/PoqDQbcYd4z6Utt9Fz1gd08lkyIn5rTaq6zUzNSOITXvidg4Qv48DwNWR2TLPlrFVdP6CG6Wf4h/PNiCF6r6CCvmQS0sFdpGskoS+Sd8KZPMfDIcLSR/oHjPhbP7vmctH6xqCAYTPVCNwq3w3D6HbeFi7ous2VLqNjqp0Gc7kxeN2xX8jv/kaGgfyWLH0GPv3FF1sLTcVR9CaCuLsGfMYZhfGWXUH/UeEWfMEZhZGWQSVwvRDU23oGa9h76H1e79UJeD7gp2s2oOWKKxoTSEDIhyPqxNgsS0wBlg1MNylg9SVses+UnVvMfeUwAgUEPI6jmdtwJPaw8yTWrQswGazo3PUiNN57yOFrf+OwMWid5Bh/Bsyq/bjB8NuXC/9AtdLd7FwfrphF34s3407xr3IrNqHn01f4X7VfjwwHcLD59/iF9M3uGf6CreNe5FetgsXij7FmfwPodJtRzKrVKSQOFU/knfIy40CHYfwHmmdx5XiTzE0TeF4306DN4nxWzLEw+JD5OnkNKchQR3JQAkckEjI1ZG4XvpnjEx3sAFQ6KG0PR0pNFfQUEo2nE2gjmWRqiL3NQxyNcWIqOY2Askaus5rbmmNBzVK7rg3OkfPUYiCLfDXbmJpYyYFLPDJVWewIBAYlLFM0W1DXb/W6UGRfQp0CxgM+gAzh1TsvDDKluYma6hSZFPA3MVqpaRo/Gw6iMquX6BrOodTudsc0WFhX6gSJRoUDeXhCApJuBrpd9YkqvGNAUnc0kbPcc4XQT7BOCsBgL+DHIxNkEvxqOi653Aglk5cAwEkKDAYII6JGNW7kkt5tuBDJLOiZ/6vJcSAhRgvtydvijhcTlLA1lG8KnkjAFp+L74r9st9N9jz9F4ClWJrydoonCv4CFXdD5yeXKB2wh2s4MFwM+j0L4g6RsuRWfk3HM0i9REJlcQlhQbtkzBU8k/c66Y2giVWqJ9b2ncaF4950T+XuV2xB13jJufkciVAEChBg+FC1OXDU22sqesxLunfRYI6iulpJdPRm5gKSdFEQqGhxSzeGul0b+ff3DnqL1N9OrIzm1hgk2zkuYJNqOh4wEM4DqZ00SP4XyEAw2FDmMEio2VnriSt1cuqP4b0st04V/BH7nmx0AIZZpq9r/1GQKTlvIXTuR/gWunneFp3FNU9T1nWkJOcM2Lw5F/6ZEjAEB0jIHjj9UYUlqB0Z/9kE1qGClDd+xSm7ieo6n78b9Fqep/hxXAhqDJkfLaXTTIpEuEap2u8S8ka3FEIwfDWAcE5IvTN06siFrT2945+O5lMuKuhBUFQbpXBEJ+hvRiAGJD7Nc/rnve4H3t7j/s5z3vd3+3+Tc9nxLG4x/094tzq7l8jGKs7kN/C29fBWEMoroOxDsYaosAa6sq6ZKyDsYYosIa6si4Z62CsIQqsoa78C4Jau84W19zUAAAAAElFTkSuQmCC;" parent="um_Ki8IDZ3RUpcfRVOOU-1" vertex="1">
          <mxGeometry width="99" height="69" as="geometry" />
        </mxCell>
        <mxCell id="OpV2UFvNa62Xhtrnb1xq-18" value="&lt;b&gt;Discovery Service (Eureka)&lt;/b&gt;" style="text;strokeColor=none;align=center;fillColor=none;html=1;verticalAlign=middle;whiteSpace=wrap;rounded=0;" parent="um_Ki8IDZ3RUpcfRVOOU-1" vertex="1">
          <mxGeometry x="2.5934343434342964" y="50" width="97.81313131313132" height="50" as="geometry" />
        </mxCell>
        <mxCell id="5HrQXzcluboesoKULM77-3" value="" style="endArrow=classic;startArrow=classic;html=1;rounded=0;entryX=1;entryY=0.5;entryDx=0;entryDy=0;exitX=0.5;exitY=0;exitDx=0;exitDy=0;edgeStyle=orthogonalEdgeStyle;" parent="1" source="OpV2UFvNa62Xhtrnb1xq-7" target="tSHxOHQZL74azQnE-G1b-1" edge="1">
          <mxGeometry width="50" height="50" relative="1" as="geometry">
            <mxPoint x="477" y="380" as="sourcePoint" />
            <mxPoint x="527" y="330" as="targetPoint" />
          </mxGeometry>
        </mxCell>
        <mxCell id="5HrQXzcluboesoKULM77-4" value="" style="endArrow=classic;startArrow=classic;html=1;rounded=0;exitX=1;exitY=0.5;exitDx=0;exitDy=0;entryX=0.25;entryY=0;entryDx=0;entryDy=0;edgeStyle=orthogonalEdgeStyle;" parent="1" source="tSHxOHQZL74azQnE-G1b-2" target="OpV2UFvNa62Xhtrnb1xq-7" edge="1">
          <mxGeometry width="50" height="50" relative="1" as="geometry">
            <mxPoint x="587" y="540" as="sourcePoint" />
            <mxPoint x="637" y="490" as="targetPoint" />
          </mxGeometry>
        </mxCell>
        <mxCell id="5HrQXzcluboesoKULM77-5" value="" style="endArrow=classic;startArrow=classic;html=1;rounded=0;entryX=1;entryY=0.5;entryDx=0;entryDy=0;exitX=-0.012;exitY=0.632;exitDx=0;exitDy=0;exitPerimeter=0;" parent="1" source="OpV2UFvNa62Xhtrnb1xq-7" target="OpV2UFvNa62Xhtrnb1xq-22" edge="1">
          <mxGeometry width="50" height="50" relative="1" as="geometry">
            <mxPoint x="597" y="550" as="sourcePoint" />
            <mxPoint x="647" y="500" as="targetPoint" />
          </mxGeometry>
        </mxCell>
        <mxCell id="5HrQXzcluboesoKULM77-6" value="" style="endArrow=classic;startArrow=classic;html=1;rounded=0;entryX=1;entryY=0.5;entryDx=0;entryDy=0;exitX=0.25;exitY=1;exitDx=0;exitDy=0;edgeStyle=orthogonalEdgeStyle;" parent="1" source="OpV2UFvNa62Xhtrnb1xq-8" target="OpV2UFvNa62Xhtrnb1xq-3" edge="1">
          <mxGeometry width="50" height="50" relative="1" as="geometry">
            <mxPoint x="612.25" y="400.5" as="sourcePoint" />
            <mxPoint x="417" y="430" as="targetPoint" />
          </mxGeometry>
        </mxCell>
        <mxCell id="5HrQXzcluboesoKULM77-7" value="" style="endArrow=classic;startArrow=classic;html=1;rounded=0;exitX=1;exitY=0.5;exitDx=0;exitDy=0;edgeStyle=orthogonalEdgeStyle;" parent="1" source="OpV2UFvNa62Xhtrnb1xq-17" target="OpV2UFvNa62Xhtrnb1xq-8" edge="1">
          <mxGeometry width="50" height="50" relative="1" as="geometry">
            <mxPoint x="510.00656565656584" y="545" as="sourcePoint" />
            <mxPoint x="702.85" y="390" as="targetPoint" />
          </mxGeometry>
        </mxCell>
        <mxCell id="5HrQXzcluboesoKULM77-8" value="&lt;b&gt;File Store&lt;/b&gt;" style="shape=document;whiteSpace=wrap;html=1;boundedLbl=1;" parent="1" vertex="1">
          <mxGeometry x="700" y="235" width="90" height="50" as="geometry" />
        </mxCell>
        <mxCell id="5HrQXzcluboesoKULM77-9" value="" style="endArrow=classic;startArrow=classic;html=1;rounded=0;exitX=1;exitY=0.5;exitDx=0;exitDy=0;entryX=0;entryY=0.5;entryDx=0;entryDy=0;" parent="1" source="OpV2UFvNa62Xhtrnb1xq-7" target="5HrQXzcluboesoKULM77-8" edge="1">
          <mxGeometry width="50" height="50" relative="1" as="geometry">
            <mxPoint x="740" y="550" as="sourcePoint" />
            <mxPoint x="790" y="500" as="targetPoint" />
          </mxGeometry>
        </mxCell>
      </root>
    </mxGraphModel>
  </diagram>
</mxfile>
